<svg class="h-10 w-10" width="28" height="28" viewBox="0 0 24 24" fill="none" xmlns="http://www.w3.org/2000/svg"><g clip-path="url(#clip0_8055_7235)"><path d="M11.5858 0.307889L0.145371 12.5397C0.0521143 12.6384 0 12.7701 0 12.9072V14.0043C0 14.3019 0.241371 14.5433 0.538971 14.5433H23.4213C23.7189 14.5433 23.9602 14.3019 23.9602 14.0043V12.9072C23.9602 12.7701 23.9081 12.6384 23.8149 12.5397L12.373 0.307889C12.1605 0.0802317 11.7984 0.0802317 11.5858 0.307889Z" fill="url(#paint0_linear_8055_7235)"></path><path d="M11.8176 10.4139L0.375771 17.1161C0.152229 17.1874 0 17.3945 0 17.6304V18.5451C0 18.8427 0.241371 19.0841 0.538971 19.0841H23.4213C23.7189 19.0841 23.9602 18.8427 23.9602 18.5451V17.6304C23.9602 17.3959 23.808 17.1874 23.5845 17.1161L12.144 10.4139C12.0384 10.381 11.9246 10.381 11.819 10.4139H11.8176Z" fill="url(#paint1_linear_8055_7235)"></path><path d="M11.8176 18.2558L0.375771 21.8736C0.152229 21.9449 0 22.152 0 22.3879V23.3026C0 23.6002 0.241371 23.8416 0.538971 23.8416H23.4213C23.7189 23.8416 23.9602 23.6002 23.9602 23.3026V22.3879C23.9602 22.1534 23.808 21.9449 23.5845 21.8736L12.144 18.2571C12.0384 18.2242 11.9246 18.2242 11.819 18.2571L11.8176 18.2558Z" fill="url(#paint2_linear_8055_7235)"></path></g><defs><linearGradient id="paint0_linear_8055_7235" x1="11.9794" y1="0.13646" x2="11.9794" y2="14.5433" gradientUnits="userSpaceOnUse"><stop stop-color="#F234BA"></stop><stop offset="1" stop-color="#E01659"></stop></linearGradient><linearGradient id="paint1_linear_8055_7235" x1="11.9794" y1="10.3893" x2="11.9794" y2="19.0841" gradientUnits="userSpaceOnUse"><stop stop-color="#F3C4DC"></stop><stop offset="1" stop-color="#E274AB"></stop></linearGradient><linearGradient id="paint2_linear_8055_7235" x1="11.9794" y1="23.8402" x2="11.9794" y2="18.2311" gradientUnits="userSpaceOnUse"><stop stop-color="#F1B7D4"></stop><stop offset="1" stop-color="#F9E3EE"></stop></linearGradient><clipPath id="clip0_8055_7235"><rect width="28" height="28" fill="white"></rect></clipPath></defs></svg>