<svg width="148" height="32" viewBox="0 0 148 32" fill="none" xmlns="http://www.w3.org/2000/svg">
<g clip-path="url(#clip0_8084_13302)">
<path d="M38.8278 11.08C38.8278 9.90553 39.1313 8.86893 39.7383 7.96851C40.3453 7.06979 41.1859 6.36681 42.2618 5.86298C43.3377 5.35915 44.5824 5.10553 45.9976 5.10553C47.4129 5.10553 48.5399 5.34383 49.5425 5.82213C50.5434 6.29872 51.326 6.97787 51.887 7.85957C52.4479 8.74127 52.7463 9.78638 52.7838 10.9983H49.2543C49.2168 10.1353 48.9048 9.46127 48.3165 8.97447C47.7283 8.48766 46.9371 8.24425 45.9448 8.24425C44.8604 8.24425 43.9908 8.48766 43.3394 8.97447C42.6864 9.46127 42.3607 10.1268 42.3607 10.9711C42.3607 11.6877 42.5585 12.2511 42.9541 12.6647C43.3497 13.0783 43.9703 13.3847 44.816 13.5872L47.9875 14.3038C49.7147 14.6715 51.002 15.2996 51.8477 16.1898C52.6935 17.08 53.1163 18.2783 53.1163 19.783C53.1163 21.0136 52.8128 22.0962 52.2058 23.0323C51.5988 23.9685 50.7394 24.6885 49.6277 25.194C48.5143 25.6979 47.2151 25.9515 45.7248 25.9515C44.2346 25.9515 43.0683 25.7081 42.001 25.2213C40.9353 24.7345 40.1015 24.0519 39.5047 23.1702C38.908 22.2885 38.5891 21.2519 38.5533 20.0587H42.0828C42.0999 20.903 42.4358 21.5685 43.0888 22.0553C43.7418 22.5421 44.6285 22.7855 45.7504 22.7855C46.8723 22.7855 47.8596 22.5421 48.5501 22.0553C49.239 21.5685 49.5834 20.9217 49.5834 20.1149C49.5834 19.417 49.3993 18.8621 49.0327 18.4485C48.6644 18.0349 48.0676 17.7455 47.2406 17.5804L44.0419 16.8638C42.3317 16.4962 41.0359 15.8306 40.1527 14.8672C39.2694 13.9038 38.8295 12.6426 38.8295 11.0817L38.8278 11.08Z" fill="black"/>
<path d="M55.8171 31.8936V11.9889H58.934L59.154 14.0536C59.5581 13.2638 60.1838 12.6545 61.0295 12.2221C61.8752 11.7915 62.8045 11.5753 63.8156 11.5753C65.12 11.5753 66.247 11.8698 67.1934 12.457C68.1397 13.0443 68.8797 13.8613 69.4134 14.9081C69.947 15.9549 70.213 17.194 70.213 18.6255C70.213 20.057 69.9641 21.2962 69.4679 22.3974C68.9717 23.4987 68.2505 24.3651 67.3025 24.9983C66.3562 25.6315 65.2018 25.9481 63.8412 25.9481C62.8301 25.9481 61.9059 25.7557 61.0687 25.3694C60.2316 24.9847 59.6024 24.4519 59.1795 23.7728V31.8936H55.8154H55.8171ZM59.2085 18.7889C59.2085 19.5974 59.3637 20.3123 59.6774 20.937C59.9894 21.5617 60.4362 22.0519 61.0142 22.4094C61.5939 22.7668 62.2691 22.9455 63.0415 22.9455C63.8139 22.9455 64.5113 22.7668 65.0825 22.4094C65.652 22.0519 66.0851 21.56 66.3783 20.937C66.6716 20.314 66.8199 19.5974 66.8199 18.7889C66.8199 17.9804 66.6716 17.2655 66.3783 16.6408C66.0834 16.0179 65.652 15.526 65.0825 15.1685C64.513 14.8111 63.8327 14.6306 63.0415 14.6306C62.2504 14.6306 61.5939 14.806 61.0142 15.1532C60.4362 15.5021 59.9894 15.9889 59.6774 16.6119C59.3637 17.2366 59.2085 17.9617 59.2085 18.7872V18.7889Z" fill="black"/>
<path d="M78.9822 25.9464C77.6403 25.9464 76.4502 25.6383 75.4101 25.0238C74.3717 24.4094 73.5584 23.5651 72.9701 22.4911C72.3819 21.417 72.0886 20.183 72.0886 18.7889C72.0886 17.3949 72.3734 16.1285 72.9429 15.0443C73.5124 13.9617 74.312 13.1123 75.3419 12.4979C76.3718 11.8834 77.5483 11.5753 78.8714 11.5753C80.1945 11.5753 81.4358 11.8647 82.4299 12.4434C83.4239 13.0221 84.1912 13.8238 84.7334 14.8519C85.2756 15.88 85.5467 17.1089 85.5467 18.5404V19.5583L73.8534 19.5855L73.9096 17.4374H82.2116C82.2116 16.5013 81.9115 15.7489 81.3147 15.1804C80.718 14.6119 79.9132 14.3277 78.9021 14.3277C78.1109 14.3277 77.4442 14.4928 76.902 14.823C76.3598 15.1532 75.9506 15.6485 75.6744 16.3089C75.3982 16.9694 75.2601 17.7779 75.2601 18.7311C75.2601 20.2 75.5772 21.3098 76.2115 22.0621C76.8458 22.8145 77.787 23.1906 79.0385 23.1906C79.9575 23.1906 80.7163 23.017 81.313 22.6681C81.9098 22.3191 82.302 21.8238 82.4844 21.1821H85.6013C85.3063 22.6681 84.5765 23.834 83.4086 24.6783C82.2406 25.5226 80.764 25.9447 78.9822 25.9447V25.9464Z" fill="black"/>
<path d="M91.6134 25.5889H88.2493V11.9889H91.3661L91.6423 13.7506C92.0652 13.0715 92.6671 12.5387 93.4497 12.154C94.2307 11.7694 95.0815 11.5753 96.0005 11.5753C97.7107 11.5753 99.0014 12.0808 99.8744 13.0902C100.747 14.0996 101.184 15.4766 101.184 17.2196V25.5889H97.8198V18.0179C97.8198 16.8791 97.5624 16.0315 97.0474 15.4715C96.5325 14.9115 95.8334 14.6323 94.9519 14.6323C93.9033 14.6323 93.0848 14.9626 92.4966 15.623C91.9083 16.2834 91.6134 17.1651 91.6134 18.2664V25.5889Z" fill="black"/>
<path d="M110.091 25.9464C108.768 25.9464 107.632 25.6485 106.686 25.0511C105.74 24.4553 105.003 23.6247 104.48 22.5591C103.956 21.4953 103.694 20.2562 103.694 18.8417C103.694 17.4272 103.956 16.1762 104.48 15.0834C105.003 13.9923 105.762 13.1328 106.754 12.5098C107.747 11.8868 108.923 11.5736 110.284 11.5736C111.239 11.5736 112.113 11.7626 112.903 12.1387C113.694 12.5149 114.299 13.0426 114.722 13.7217V5.10553H118.059V25.5889H114.969L114.749 23.4698C114.345 24.2409 113.725 24.8468 112.888 25.2877C112.05 25.7285 111.118 25.9481 110.088 25.9481L110.091 25.9464ZM110.835 22.8638C111.626 22.8638 112.306 22.6936 112.876 22.3549C113.445 22.0162 113.892 21.5294 114.214 20.8962C114.535 20.263 114.697 19.543 114.697 18.7345C114.697 17.926 114.536 17.1889 114.214 16.5728C113.892 15.9583 113.445 15.4715 112.876 15.114C112.306 14.7566 111.626 14.5779 110.835 14.5779C110.043 14.5779 109.39 14.7566 108.821 15.114C108.251 15.4715 107.815 15.9634 107.511 16.5864C107.208 17.2111 107.056 17.926 107.056 18.7345C107.056 19.543 107.208 20.2579 107.511 20.8826C107.815 21.5072 108.251 21.994 108.821 22.3413C109.39 22.6902 110.062 22.8638 110.835 22.8638Z" fill="black"/>
<path d="M129.778 12.1506H123.936V9.40001C123.936 8.60852 124.071 8.02299 124.335 7.65873C124.584 7.31831 125.089 7.14469 125.838 7.14469H127.191V5.60937L127.012 5.57362C126.816 5.53448 126.593 5.51065 126.329 5.50043C126.078 5.49192 125.841 5.48682 125.618 5.48682C125.034 5.48682 124.48 5.61448 123.974 5.86809C123.457 6.12682 123.031 6.55065 122.707 7.12937C122.386 7.70128 122.224 8.46554 122.224 9.40001V12.1506H120.156V13.6979H122.224V25.8119H123.94V13.6979H129.781V25.8119H131.497V5.48852H129.781V12.1506H129.778Z" fill="#E92589"/>
<path d="M147.049 15.3081C146.462 14.2409 145.652 13.3847 144.639 12.7617C143.625 12.137 142.448 11.8204 141.144 11.8204C139.84 11.8204 138.687 12.137 137.662 12.7617C136.639 13.3847 135.824 14.2426 135.239 15.3081C134.654 16.3736 134.356 17.6094 134.356 18.9813C134.356 20.3532 134.653 21.5651 135.238 22.6392C135.824 23.7149 136.639 24.5762 137.662 25.2009C138.687 25.8255 139.857 26.1421 141.144 26.1421C142.431 26.1421 143.625 25.8255 144.639 25.2009C145.652 24.5779 146.462 23.7149 147.049 22.6392C147.633 21.5634 147.93 20.3328 147.93 18.9813C147.93 17.6298 147.633 16.3753 147.047 15.3081H147.049ZM141.144 24.5404C140.162 24.5404 139.282 24.3021 138.532 23.8306C137.778 23.3592 137.18 22.697 136.75 21.8664C136.319 21.0323 136.099 20.0604 136.099 18.9813C136.099 17.9021 136.317 16.9098 136.748 16.0843C137.178 15.2621 137.778 14.6051 138.53 14.1319C139.28 13.6621 140.158 13.4221 141.142 13.4221C142.126 13.4221 143.002 13.6604 143.753 14.1319C144.505 14.6034 145.105 15.2604 145.534 16.0843C145.966 16.9115 146.184 17.8851 146.184 18.9813C146.184 20.0775 145.966 21.0306 145.533 21.8664C145.103 22.6987 144.503 23.3592 143.751 23.8306C143.001 24.3004 142.121 24.5404 141.139 24.5404H141.144Z" fill="#E92589"/>
<path d="M14.4044 0.211915L0.180737 15.3932C0.0647926 15.5157 0 15.6791 0 15.8494V17.2111C0 17.5804 0.300092 17.88 0.670092 17.88H29.1192C29.4892 17.88 29.7893 17.5804 29.7893 17.2111V15.8494C29.7893 15.6791 29.7245 15.5157 29.6085 15.3932L15.3831 0.211915C15.1188 -0.0706383 14.6687 -0.0706383 14.4044 0.211915Z" fill="url(#paint0_linear_8084_13302)"/>
<path d="M14.6926 12.7549L0.467189 21.0732C0.189263 21.1617 0 21.4187 0 21.7115V22.8468C0 23.2162 0.300092 23.5157 0.670092 23.5157H29.1192C29.4892 23.5157 29.7893 23.2162 29.7893 22.8468V21.7115C29.7893 21.4204 29.6 21.1617 29.3221 21.0732L15.0984 12.7549C14.9671 12.714 14.8256 12.714 14.6943 12.7549H14.6926Z" fill="url(#paint1_linear_8084_13302)"/>
<path d="M14.6926 22.4877L0.467189 26.9779C0.189263 27.0664 0 27.3234 0 27.6162V28.7515C0 29.1209 0.300092 29.4204 0.670092 29.4204H29.1192C29.4892 29.4204 29.7893 29.1209 29.7893 28.7515V27.6162C29.7893 27.3251 29.6 27.0664 29.3221 26.9779L15.0984 22.4894C14.9671 22.4485 14.8256 22.4485 14.6943 22.4894L14.6926 22.4877Z" fill="url(#paint2_linear_8084_13302)"/>
</g>
<defs>
<linearGradient id="paint0_linear_8084_13302" x1="14.8938" y1="-0.000851064" x2="14.8938" y2="17.88" gradientUnits="userSpaceOnUse">
<stop stop-color="#F234BA"/>
<stop offset="1" stop-color="#E01659"/>
</linearGradient>
<linearGradient id="paint1_linear_8084_13302" x1="14.8938" y1="12.7242" x2="14.8938" y2="23.5157" gradientUnits="userSpaceOnUse">
<stop stop-color="#F3C4DC"/>
<stop offset="1" stop-color="#E274AB"/>
</linearGradient>
<linearGradient id="paint2_linear_8084_13302" x1="14.8938" y1="29.4187" x2="14.8938" y2="22.457" gradientUnits="userSpaceOnUse">
<stop stop-color="#F1B7D4"/>
<stop offset="1" stop-color="#F9E3EE"/>
</linearGradient>
<clipPath id="clip0_8084_13302">
<rect width="148" height="32" fill="white"/>
</clipPath>
</defs>
</svg>
